# Blender v2.83 (sub 0) OBJ File: ''
# www.blender.org
mtllib Cone.mtl
o Cone
v 0.000001 0.000000 -0.500000
v 0.191343 0.000000 -0.461941
v 0.353554 0.000000 -0.353554
v 0.461941 0.000000 -0.191341
v 0.500000 0.000000 -0.000000
v 0.461941 0.000000 0.191341
v 0.353554 0.000000 0.353554
v 0.191343 0.000000 0.461941
v 0.000001 0.000000 0.500000
v -0.191341 0.000000 0.461941
v -0.353554 0.000000 0.353554
v 0.000001 1.000000 -0.000000
v -0.461937 0.000000 0.191341
v -0.500000 0.000000 -0.000000
v -0.461937 0.000000 -0.191341
v -0.353554 0.000000 -0.353554
v -0.191341 0.000000 -0.461941
vt 0.250000 0.490000
vt 0.250000 0.250000
vt 0.341844 0.471731
vt 0.419706 0.419706
vt 0.471731 0.341844
vt 0.490000 0.250000
vt 0.471731 0.158156
vt 0.419706 0.080294
vt 0.341844 0.028269
vt 0.250000 0.010000
vt 0.158156 0.028269
vt 0.080294 0.080294
vt 0.028269 0.158156
vt 0.010000 0.250000
vt 0.028269 0.341844
vt 0.080294 0.419706
vt 0.158156 0.471731
vn 0.0000 0.4472 -0.8944
vn 0.0000 1.0000 0.0000
vn 0.3423 0.4472 -0.8263
vn 0.6324 0.4472 -0.6324
vn 0.8263 0.4472 -0.3423
vn 0.8944 0.4472 0.0000
vn 0.8263 0.4472 0.3423
vn 0.6324 0.4472 0.6324
vn 0.3423 0.4472 0.8263
vn 0.0000 0.4472 0.8944
vn -0.3423 0.4472 0.8263
vn -0.6324 0.4472 0.6324
vn -0.8263 0.4472 0.3423
vn -0.8944 0.4472 0.0000
vn -0.8263 0.4472 -0.3423
vn -0.6324 0.4472 -0.6324
vn -0.3423 0.4472 -0.8263
usemtl None
s 1
f 1/1/1 12/2/2 2/3/3
f 2/3/3 12/2/2 3/4/4
f 3/4/4 12/2/2 4/5/5
f 4/5/5 12/2/2 5/6/6
f 5/6/6 12/2/2 6/7/7
f 6/7/7 12/2/2 7/8/8
f 7/8/8 12/2/2 8/9/9
f 8/9/9 12/2/2 9/10/10
f 9/10/10 12/2/2 10/11/11
f 10/11/11 12/2/2 11/12/12
f 11/12/12 12/2/2 13/13/13
f 13/13/13 12/2/2 14/14/14
f 14/14/14 12/2/2 15/15/15
f 15/15/15 12/2/2 16/16/16
f 16/16/16 12/2/2 17/17/17
f 17/17/17 12/2/2 1/1/1
